<svg xmlns="http://www.w3.org/2000/svg" width="1024" height="1024" viewBox="280 295 460 435" fill="none">
  <path fill="#07FBA2" d="M341.647 349.033C349.227 356.485 357.083 363.361 364.808 370.629L440.352 440.857L480.266 478.231C486.224 483.811 495.223 492.746 501.301 497.596C526.384 475.743 556.503 453.025 582.698 432.012L617.69 403.989C620.455 401.764 631.888 391.908 634.031 391.364C635.782 391.624 635.096 391.23 636.216 392.481C636.581 394.874 636.148 402.392 636.054 405.122L635.183 430.743L633.215 489.494C633.056 494.91 633.534 509.174 632.268 513.454C630.851 511.6 631.166 411.271 630.875 399.791C622.573 406.991 614.352 413.194 605.815 420.044L555.984 459.813C539.727 472.734 521.102 489.097 504.194 500.904C535.595 530.538 566.824 560.355 597.878 590.353C623.119 614.832 649.265 641.271 674.852 665.173L673.306 665.532C669.219 661.175 661.527 654.472 656.865 650.166L624.658 620.347L523.666 526.067C516.846 531.305 509.654 537.594 502.778 543.048L427.572 602.973L404.414 621.425C400.726 624.393 392.453 632.874 388.025 631.859C387.282 630.424 387.346 628.074 387.386 626.393C388.086 597.066 389.295 567.657 390.709 538.357C390.911 534.171 391.208 513.055 391.925 510.5C393.513 512.559 392.965 548.945 392.988 554.751L393.547 623.502C435.145 589.56 478.34 555.974 520.352 522.473C515.947 519.071 509.44 512.502 505.048 508.414C492.077 496.267 479.233 483.985 466.52 471.569L368 376.643C358.721 367.759 349.76 358.456 340.352 349.727L341.647 349.033Z"/>
  <path fill="#159563" d="M674.852 665.173C680.594 670.623 726.9 714.962 727.234 716.466L726.696 715.732L726.029 715.591C718.507 709.258 709.873 700.51 702.676 693.554L673.306 665.532L674.852 665.173Z"/>
  <path fill="#159563" d="M340.352 349.727C333.707 343.988 325.37 335.265 318.671 329.112C314.353 325.146 299.757 311.608 296.908 307.565C300.911 309.815 309.765 319.042 313.577 322.649L341.647 349.033L340.352 349.727Z"/>
</svg>
